<svg width="113" height="45" viewBox="0 0 113 45" fill="none" xmlns="http://www.w3.org/2000/svg">
<path d="M48.7114 35.772C49.441 36.4104 50.0338 37.7328 50.0338 39.0552C50.0338 42.612 46.9786 44.664 43.6042 44.664C29.9242 44.664 35.1226 23.8704 26.5954 22.32L25.501 26.424C23.0842 35.3616 17.4754 39.8304 10.8178 39.8304C4.84419 39.8304 -1.17501 34.632 0.557793 28.2024C1.88019 23.232 6.21219 21.5904 9.81459 21.5904C12.7786 21.5904 15.1954 23.0952 16.1986 25.1928C16.3354 25.512 16.1986 25.8768 15.8338 26.0592C15.5602 26.1504 15.241 26.0592 15.0586 25.7856C14.3746 24.8736 13.3258 24.2352 12.0034 24.2352C10.225 24.2352 8.30979 25.6032 7.76259 27.7008C7.12419 30.1176 8.67459 33.0816 11.9122 33.0816C15.1042 33.0816 17.2018 30.3912 18.2962 26.424C18.7978 24.5544 20.2114 19.5384 20.7586 17.3952C22.4914 10.92 26.2762 5.63039 32.569 3.07679C31.5202 2.84879 30.3346 2.66639 29.0122 2.66639C21.853 2.66639 17.3386 6.86159 16.381 10.464C15.7882 12.6072 16.6546 14.4312 17.9314 14.9784C18.3418 15.1608 18.4786 15.3888 18.3874 15.7536C18.2506 16.164 17.749 16.392 17.293 16.392C11.5018 16.392 8.81139 12.972 9.95139 8.77679C11.2738 3.94319 18.6154 0.75119 27.1426 0.75119C39.8194 0.75119 47.5714 8.32079 45.9298 14.568C44.7442 18.9 40.1842 21.0432 33.2074 21.864C41.5978 26.1504 40.6858 37.9152 45.4282 37.9152C46.4314 37.9152 47.0698 37.4592 47.8906 36.0456C48.1186 35.6352 48.4834 35.5896 48.7114 35.772ZM27.1426 20.268C33.4354 20.04 37.4482 17.7144 38.5426 13.3824C39.5002 9.68879 38.3146 5.35679 33.937 3.53279C30.517 7.68239 28.4194 15.4344 27.1426 20.268Z" fill="#1223AA"/>
<path d="M65.271 23.9616C65.9094 23.9616 66.411 24.5544 66.2286 25.1472C65.1342 29.2512 62.3982 33.9936 57.8382 33.9936C55.695 33.9936 54.1446 32.7624 53.6886 30.6192C52.1382 32.808 50.2686 33.9936 47.8974 33.9936C45.1158 33.9936 42.6078 31.6224 43.3374 28.7952L46.4382 17.2128C47.031 15.024 49.539 13.884 52.1838 13.884C53.9166 13.884 54.5094 14.9784 54.099 16.4832C53.5518 18.5808 51.819 20.5416 50.907 23.9616C50.7246 24.6 50.0406 27.3816 49.9494 27.564C49.4478 29.5248 49.311 30.8472 50.451 30.8472C52.5942 30.8472 55.011 22.5024 56.5158 17.2128C57.1086 15.024 58.9326 13.884 61.5774 13.884C63.2646 13.884 63.903 14.9784 63.4926 16.4832C63.1734 17.6232 62.0334 19.9944 61.5318 22.0008C60.5286 25.74 60.6654 27.9744 62.0334 27.9744C62.991 27.9744 63.9486 26.196 64.359 24.6456C64.4958 24.2352 64.8606 23.9616 65.271 23.9616Z" fill="#1223AA"/>
<path d="M96.166 23.9616C96.8044 23.9616 97.2604 24.5544 97.1236 25.1472C96.0292 29.2512 93.2932 33.9936 88.7332 33.9936C85.5868 33.9936 83.626 31.3032 84.8116 27.0168C84.994 26.424 86.4076 20.952 86.59 20.3136C87.0916 18.3528 87.2284 17.0304 86.0884 17.0304C83.9452 17.0304 82.3036 26.1048 80.7988 31.3944C80.3884 32.8992 79.2028 33.9936 77.5156 33.9936C74.8708 33.9936 72.9556 32.8536 73.5484 30.6648C73.6852 30.2544 76.2388 20.496 76.2844 20.3136C76.786 18.3528 77.014 17.0304 76.2388 17.0304C74.1412 17.0304 71.4964 26.1048 70.0372 31.3944C69.6268 32.8992 68.4412 33.9936 66.754 33.9936C64.1092 33.9936 62.194 32.8536 62.7868 30.6648L66.3892 17.2128C66.982 15.024 69.49 13.884 72.1348 13.884C73.6852 13.884 74.3236 14.796 74.0956 16.1184C75.4636 14.6592 77.014 13.884 78.838 13.884C81.118 13.884 82.8508 15.7536 82.9876 17.8056C84.4468 15.2976 86.1796 13.884 88.642 13.884C91.6972 13.884 93.8404 16.62 93.202 19.0824C92.9284 20.1312 92.6548 21.0432 92.4268 22.0008C91.4236 25.74 91.5604 27.9744 92.9284 27.9744C93.886 27.9744 94.8436 26.196 95.254 24.6456C95.3452 24.2352 95.7556 23.9616 96.166 23.9616Z" fill="#1223AA"/>
<path d="M105.892 13.884C111.364 13.884 113.416 18.3984 111.911 23.9616C110.452 29.4792 105.938 33.9936 100.466 33.9936C94.9936 33.9936 92.9416 29.4792 94.4464 23.9616C95.9056 18.3984 100.42 13.884 105.892 13.884ZM102.107 27.9744C104.114 27.9744 105.345 25.2384 106.211 21.9096C107.123 18.5352 107.397 15.7992 105.345 15.7992C103.338 15.7992 102.153 18.5352 101.241 21.9096C100.329 25.2384 100.055 27.9744 102.107 27.9744Z" fill="#1223AA"/>
</svg>
