<svg width="134" height="53" viewBox="0 0 134 53" fill="none" xmlns="http://www.w3.org/2000/svg">
<path d="M58.1228 41.7283C58.9923 42.4891 59.6987 44.0649 59.6987 45.6408C59.6987 49.8793 56.0579 52.3246 52.0367 52.3246C35.7347 52.3246 41.9295 27.5456 31.7679 25.698L30.4638 30.5886C27.5837 41.2392 20.8999 46.5646 12.9663 46.5646C5.84774 46.5646 -1.32514 40.3698 0.739781 32.7079C2.31564 26.7848 7.47794 24.8286 11.7708 24.8286C15.3029 24.8286 18.1829 26.6218 19.3784 29.1214C19.5414 29.5018 19.3784 29.9365 18.9437 30.1539C18.6176 30.2626 18.2373 30.1539 18.0199 29.8278C17.2048 28.741 15.955 27.9803 14.3791 27.9803C12.2599 27.9803 9.97758 29.6105 9.3255 32.1101C8.56474 34.9901 10.4123 38.5222 14.2704 38.5222C18.0742 38.5222 20.5739 35.3162 21.878 30.5886C22.4758 28.3607 24.1603 22.3833 24.8124 19.8293C26.8773 12.113 31.3875 5.80956 38.8865 2.76652C37.6366 2.49482 36.2238 2.27746 34.6479 2.27746C26.1166 2.27746 20.7369 7.27674 19.5958 11.5696C18.8893 14.1236 19.9218 16.2972 21.4433 16.9493C21.9324 17.1666 22.0954 17.4383 21.9867 17.873C21.8237 18.3621 21.226 18.6338 20.6826 18.6338C13.7814 18.6338 10.5753 14.5583 11.9338 9.55902C13.5097 3.79898 22.2584 -0.00482178 32.42 -0.00482178C47.5265 -0.00482178 56.7643 9.01562 54.8081 16.4602C53.3952 21.6225 47.9612 24.1765 39.6472 25.1546C49.6458 30.2626 48.559 44.2823 54.2103 44.2823C55.4058 44.2823 56.1666 43.7389 57.1447 42.0543C57.4164 41.5653 57.8511 41.5109 58.1228 41.7283ZM32.42 23.2527C39.9189 22.981 44.7008 20.2097 46.005 15.0474C47.1461 10.6458 45.7333 5.48352 40.5167 3.30992C36.4412 8.25486 33.9415 17.4927 32.42 23.2527Z" fill="white"/>
<path d="M77.8563 27.6542C78.6171 27.6542 79.2148 28.3607 78.9974 29.0671C77.6933 33.9577 74.4329 39.609 68.9989 39.609C66.4449 39.609 64.5974 38.1419 64.0539 35.5879C62.2064 38.1962 59.9784 39.609 57.1528 39.609C53.838 39.609 50.8493 36.7834 51.7188 33.4143L55.4139 19.6119C56.1203 17.0036 59.109 15.6451 62.2607 15.6451C64.3256 15.6451 65.0321 16.9493 64.543 18.7425C63.8909 21.2421 61.826 23.5787 60.7392 27.6542C60.5218 28.415 59.7067 31.7297 59.5981 31.9471C59.0003 34.2837 58.8373 35.8596 60.1958 35.8596C62.7498 35.8596 65.6298 25.9154 67.423 19.6119C68.1294 17.0036 70.303 15.6451 73.4548 15.6451C75.4653 15.6451 76.2261 16.9493 75.737 18.7425C75.3567 20.101 73.9982 22.9267 73.4004 25.3176C72.2049 29.7735 72.368 32.4362 73.9982 32.4362C75.1393 32.4362 76.2804 30.3169 76.7695 28.4693C76.9325 27.9803 77.3672 27.6542 77.8563 27.6542Z" fill="white"/>
<path d="M114.673 27.6542C115.434 27.6542 115.977 28.3607 115.814 29.0671C114.51 33.9577 111.25 39.609 105.816 39.609C102.066 39.609 99.7294 36.403 101.142 31.295C101.36 30.5886 103.044 24.0678 103.262 23.307C103.859 20.9704 104.022 19.3946 102.664 19.3946C100.11 19.3946 98.1536 30.2082 96.3604 36.5117C95.8713 38.3049 94.4585 39.609 92.4479 39.609C89.2962 39.609 87.0139 38.2505 87.7203 35.6422C87.8833 35.1532 90.9263 23.5244 90.9807 23.307C91.5784 20.9704 91.8501 19.3946 90.9263 19.3946C88.4267 19.3946 85.275 30.2082 83.5361 36.5117C83.0471 38.3049 81.6342 39.609 79.6236 39.609C76.4719 39.609 74.1896 38.2505 74.896 35.6422L79.1889 19.6119C79.8953 17.0036 82.884 15.6451 86.0358 15.6451C87.8833 15.6451 88.6441 16.7319 88.3724 18.3078C90.0026 16.5689 91.8501 15.6451 94.0237 15.6451C96.7407 15.6451 98.8056 17.873 98.9687 20.3183C100.708 17.3296 102.772 15.6451 105.707 15.6451C109.348 15.6451 111.902 18.9055 111.141 21.8399C110.815 23.0897 110.489 24.1765 110.217 25.3176C109.022 29.7735 109.185 32.4362 110.815 32.4362C111.956 32.4362 113.097 30.3169 113.586 28.4693C113.695 27.9803 114.184 27.6542 114.673 27.6542Z" fill="white"/>
<path d="M126.263 15.6451C132.784 15.6451 135.229 21.0248 133.436 27.6542C131.697 34.2294 126.317 39.609 119.797 39.609C113.276 39.609 110.83 34.2294 112.624 27.6542C114.363 21.0248 119.742 15.6451 126.263 15.6451ZM121.753 32.4362C124.144 32.4362 125.611 29.1758 126.643 25.2089C127.73 21.1878 128.056 17.9274 125.611 17.9274C123.22 17.9274 121.807 21.1878 120.72 25.2089C119.634 29.1758 119.308 32.4362 121.753 32.4362Z" fill="white"/>
</svg>
